{"asset":{"version":"2.0","generator":"Blockbench 3.7.4 glTF exporter"},"scenes":[{"nodes":[2,5,8,11,14,17],"name":"blockbench_export"}],"scene":0,"nodes":[{"translation":[1.9,-12,0],"name":"debb93e1-b0ac-1d32-99a8-1ad215315c63","mesh":0},{"translation":[1.9,-12,0],"name":"68aece14-307a-2072-7756-3a13b6025e0a","mesh":1},{"rotation":[0.08714246850588939,-0.0015210774457754552,-0.017385994761764084,0.9960429728140489],"translation":[-1.9,12,0],"name":"LeftLeg","children":[0,1]},{"translation":[-1.9,-12,0],"name":"8b952a59-082b-f932-973b-909037c6baad","mesh":2},{"translation":[-1.9,-12,0],"name":"bc600036-5230-f83d-de42-470afb8dbc76","mesh":3},{"rotation":[-0.09583115474787583,-0.0016727390282702394,0.01737205902003089,0.9952445947048578],"translation":[1.9,12,0],"name":"RightLeg","children":[3,4]},{"translation":[5,-22,0],"name":"c624acdd-ee39-5a99-78a2-43a395f43a03","mesh":4},{"translation":[5,-22,0],"name":"613410a3-acdb-cc29-3e50-e04100b729a0","mesh":5},{"rotation":[-0.10452846326765346,0,0,0.9945218953682733],"translation":[-5,22,0],"name":"LeftArm","children":[6,7]},{"translation":[-5,-22,0],"name":"7cf32889-b9b9-8884-f983-98d134a0c773","mesh":6},{"translation":[-5,-22,0],"name":"9a92b709-0977-4b6a-8b99-88cc9893b534","mesh":7},{"rotation":[0.08715574274765817,0,0,0.9961946980917455],"translation":[5,22,0],"name":"RightArm","children":[9,10]},{"translation":[0,-24,0],"name":"ac117756-076a-1be9-1fab-9281e48a750e","mesh":8},{"translation":[0,-24,0],"name":"868790bd-8d08-41b8-f0a2-a4dc103708c4","mesh":9},{"translation":[0,24,0],"name":"Body","children":[12,13]},{"translation":[0,-24,0],"name":"ab709ffb-4d9e-0a78-a922-b22bcd675ff7","mesh":10},{"translation":[0,-24,0],"name":"eb04384b-7b06-dcce-c3d7-5c5aebc675c6","mesh":11},{"rotation":[0.05228614400929896,-0.043559608510925024,0.002282862348496242,0.997679060715675],"translation":[0,24,0],"name":"Head","children":[15,16]}],"bufferViews":[{"buffer":0,"byteOffset":0,"byteLength":432,"target":34962,"byteStride":12},{"buffer":0,"byteOffset":432,"byteLength":432,"target":34962,"byteStride":12},{"buffer":0,"byteOffset":864,"byteLength":288,"target":34962,"byteStride":8},{"buffer":0,"byteOffset":1152,"byteLength":432,"target":34962,"byteStride":12},{"buffer":0,"byteOffset":1584,"byteLength":432,"target":34962,"byteStride":12},{"buffer":0,"byteOffset":2016,"byteLength":288,"target":34962,"byteStride":8},{"buffer":0,"byteOffset":2304,"byteLength":432,"target":34962,"byteStride":12},{"buffer":0,"byteOffset":2736,"byteLength":432,"target":34962,"byteStride":12},{"buffer":0,"byteOffset":3168,"byteLength":288,"target":34962,"byteStride":8},{"buffer":0,"byteOffset":3456,"byteLength":432,"target":34962,"byteStride":12},{"buffer":0,"byteOffset":3888,"byteLength":432,"target":34962,"byteStride":12},{"buffer":0,"byteOffset":4320,"byteLength":288,"target":34962,"byteStride":8},{"buffer":0,"byteOffset":4608,"byteLength":432,"target":34962,"byteStride":12},{"buffer":0,"byteOffset":5040,"byteLength":432,"target":34962,"byteStride":12},{"buffer":0,"byteOffset":5472,"byteLength":288,"target":34962,"byteStride":8},{"buffer":0,"byteOffset":5760,"byteLength":432,"target":34962,"byteStride":12},{"buffer":0,"byteOffset":6192,"byteLength":432,"target":34962,"byteStride":12},{"buffer":0,"byteOffset":6624,"byteLength":288,"target":34962,"byteStride":8},{"buffer":0,"byteOffset":6912,"byteLength":432,"target":34962,"byteStride":12},{"buffer":0,"byteOffset":7344,"byteLength":432,"target":34962,"byteStride":12},{"buffer":0,"byteOffset":7776,"byteLength":288,"target":34962,"byteStride":8},{"buffer":0,"byteOffset":8064,"byteLength":432,"target":34962,"byteStride":12},{"buffer":0,"byteOffset":8496,"byteLength":432,"target":34962,"byteStride":12},{"buffer":0,"byteOffset":8928,"byteLength":288,"target":34962,"byteStride":8},{"buffer":0,"byteOffset":9216,"byteLength":432,"target":34962,"byteStride":12},{"buffer":0,"byteOffset":9648,"byteLength":432,"target":34962,"byteStride":12},{"buffer":0,"byteOffset":10080,"byteLength":288,"target":34962,"byteStride":8},{"buffer":0,"byteOffset":10368,"byteLength":432,"target":34962,"byteStride":12},{"buffer":0,"byteOffset":10800,"byteLength":432,"target":34962,"byteStride":12},{"buffer":0,"byteOffset":11232,"byteLength":288,"target":34962,"byteStride":8},{"buffer":0,"byteOffset":11520,"byteLength":432,"target":34962,"byteStride":12},{"buffer":0,"byteOffset":11952,"byteLength":432,"target":34962,"byteStride":12},{"buffer":0,"byteOffset":12384,"byteLength":288,"target":34962,"byteStride":8},{"buffer":0,"byteOffset":12672,"byteLength":432,"target":34962,"byteStride":12},{"buffer":0,"byteOffset":13104,"byteLength":432,"target":34962,"byteStride":12},{"buffer":0,"byteOffset":13536,"byteLength":288,"target":34962,"byteStride":8}],"buffers":[{"byteLength":13824,"uri":"data:application/octet-stream;base64,"}],"accessors":[{"bufferView":0,"componentType":5126,"count":36,"max":[0.10000000149011612,12,2],"min":[-3.9000000953674316,0,-2],"type":"VEC3"},{"bufferView":1,"componentType":5126,"count":36,"max":[1,1,1],"min":[-1,-1,-1],"type":"VEC3"},{"bufferView":2,"componentType":5126,"count":36,"max":[0.499755859375,0.249755859375],"min":[0.250244140625,0.000244140625],"type":"VEC2"},{"bufferView":3,"componentType":5126,"count":36,"max":[0.3499999940395355,12.25,2.25],"min":[-4.150000095367432,-0.25,-2.25],"type":"VEC3"},{"bufferView":4,"componentType":5126,"count":36,"max":[1,1,1],"min":[-1,-1,-1],"type":"VEC3"},{"bufferView":5,"componentType":5126,"count":36,"max":[0.249755859375,0.249755859375],"min":[0.000244140625,0.000244140625],"type":"VEC2"},{"bufferView":6,"componentType":5126,"count":36,"max":[3.9000000953674316,12,2],"min":[-0.10000000149011612,0,-2],"type":"VEC3"},{"bufferView":7,"componentType":5126,"count":36,"max":[1,1,1],"min":[-1,-1,-1],"type":"VEC3"},{"bufferView":8,"componentType":5126,"count":36,"max":[0.249755859375,0.749755859375],"min":[0.000244140625,0.500244140625],"type":"VEC2"},{"bufferView":9,"componentType":5126,"count":36,"max":[4.150000095367432,12.25,2.25],"min":[-0.3499999940395355,-0.25,-2.25],"type":"VEC3"},{"bufferView":10,"componentType":5126,"count":36,"max":[1,1,1],"min":[-1,-1,-1],"type":"VEC3"},{"bufferView":11,"componentType":5126,"count":36,"max":[0.249755859375,0.499755859375],"min":[0.000244140625,0.250244140625],"type":"VEC2"},{"bufferView":12,"componentType":5126,"count":36,"max":[-4,24,2],"min":[-8,12,-2],"type":"VEC3"},{"bufferView":13,"componentType":5126,"count":36,"max":[1,1,1],"min":[-1,-1,-1],"type":"VEC3"},{"bufferView":14,"componentType":5126,"count":36,"max":[0.749755859375,0.249755859375],"min":[0.500244140625,0.000244140625],"type":"VEC2"},{"bufferView":15,"componentType":5126,"count":36,"max":[-3.75,24.25,2.25],"min":[-8.25,11.75,-2.25],"type":"VEC3"},{"bufferView":16,"componentType":5126,"count":36,"max":[1,1,1],"min":[-1,-1,-1],"type":"VEC3"},{"bufferView":17,"componentType":5126,"count":36,"max":[0.999755859375,0.249755859375],"min":[0.750244140625,0.000244140625],"type":"VEC2"},{"bufferView":18,"componentType":5126,"count":36,"max":[8,24,2],"min":[4,12,-2],"type":"VEC3"},{"bufferView":19,"componentType":5126,"count":36,"max":[1,1,1],"min":[-1,-1,-1],"type":"VEC3"},{"bufferView":20,"componentType":5126,"count":36,"max":[0.874755859375,0.749755859375],"min":[0.625244140625,0.500244140625],"type":"VEC2"},{"bufferView":21,"componentType":5126,"count":36,"max":[8.25,24.25,2.25],"min":[3.75,11.75,-2.25],"type":"VEC3"},{"bufferView":22,"componentType":5126,"count":36,"max":[1,1,1],"min":[-1,-1,-1],"type":"VEC3"},{"bufferView":23,"componentType":5126,"count":36,"max":[0.874755859375,0.499755859375],"min":[0.625244140625,0.250244140625],"type":"VEC2"},{"bufferView":24,"componentType":5126,"count":36,"max":[4,24,2],"min":[-4,12,-2],"type":"VEC3"},{"bufferView":25,"componentType":5126,"count":36,"max":[1,1,1],"min":[-1,-1,-1],"type":"VEC3"},{"bufferView":26,"componentType":5126,"count":36,"max":[0.624755859375,0.749755859375],"min":[0.250244140625,0.500244140625],"type":"VEC2"},{"bufferView":27,"componentType":5126,"count":36,"max":[4.25,24.25,2.25],"min":[-4.25,11.75,-2.25],"type":"VEC3"},{"bufferView":28,"componentType":5126,"count":36,"max":[1,1,1],"min":[-1,-1,-1],"type":"VEC3"},{"bufferView":29,"componentType":5126,"count":36,"max":[0.624755859375,0.499755859375],"min":[0.250244140625,0.250244140625],"type":"VEC2"},{"bufferView":30,"componentType":5126,"count":36,"max":[4,32,4],"min":[-4,24,-4],"type":"VEC3"},{"bufferView":31,"componentType":5126,"count":36,"max":[1,1,1],"min":[-1,-1,-1],"type":"VEC3"},{"bufferView":32,"componentType":5126,"count":36,"max":[0.499755859375,0.999755859375],"min":[0.000244140625,0.750244140625],"type":"VEC2"},{"bufferView":33,"componentType":5126,"count":36,"max":[4.5,32.5,4.5],"min":[-4.5,23.5,-4.5],"type":"VEC3"},{"bufferView":34,"componentType":5126,"count":36,"max":[1,1,1],"min":[-1,-1,-1],"type":"VEC3"},{"bufferView":35,"componentType":5126,"count":36,"max":[0.999755859375,0.999755859375],"min":[0.500244140625,0.750244140625],"type":"VEC2"}],"materials":[{"pbrMetallicRoughness":{"metallicFactor":0,"roughnessFactor":1,"baseColorTexture":{"index":0}},"alphaMode":"MASK","alphaCutoff":0.05,"doubleSided":true,"name":"mjj skin.png"}],"textures":[{"sampler":0,"source":0,"name":"mjj skin.png"}],"samplers":[{"magFilter":9728,"minFilter":9728,"wrapS":33071,"wrapT":33071}],"images":[{"mimeType":"image/png","uri":"data:image/png;base64,"}],"meshes":[{"primitives":[{"mode":4,"attributes":{"POSITION":0,"NORMAL":1,"TEXCOORD_0":2},"material":0}]},{"primitives":[{"mode":4,"attributes":{"POSITION":3,"NORMAL":4,"TEXCOORD_0":5},"material":0}]},{"primitives":[{"mode":4,"attributes":{"POSITION":6,"NORMAL":7,"TEXCOORD_0":8},"material":0}]},{"primitives":[{"mode":4,"attributes":{"POSITION":9,"NORMAL":10,"TEXCOORD_0":11},"material":0}]},{"primitives":[{"mode":4,"attributes":{"POSITION":12,"NORMAL":13,"TEXCOORD_0":14},"material":0}]},{"primitives":[{"mode":4,"attributes":{"POSITION":15,"NORMAL":16,"TEXCOORD_0":17},"material":0}]},{"primitives":[{"mode":4,"attributes":{"POSITION":18,"NORMAL":19,"TEXCOORD_0":20},"material":0}]},{"primitives":[{"mode":4,"attributes":{"POSITION":21,"NORMAL":22,"TEXCOORD_0":23},"material":0}]},{"primitives":[{"mode":4,"attributes":{"POSITION":24,"NORMAL":25,"TEXCOORD_0":26},"material":0}]},{"primitives":[{"mode":4,"attributes":{"POSITION":27,"NORMAL":28,"TEXCOORD_0":29},"material":0}]},{"primitives":[{"mode":4,"attributes":{"POSITION":30,"NORMAL":31,"TEXCOORD_0":32},"material":0}]},{"primitives":[{"mode":4,"attributes":{"POSITION":33,"NORMAL":34,"TEXCOORD_0":35},"material":0}]}]}